999
dxfrw 0.6.3
  0
SECTION
  2
HEADER
  9
$ACADVER
  1
AC1021
  9
$DWGCODEPAGE
  3
ANSI_1252
  9
$INSBASE
 10
0
 20
0
 30
0
  9
$EXTMIN
 10
0
 20
-90.00000000000003
 30
0
  9
$EXTMAX
 10
1400
 20
90.00000000000003
 30
0
  9
$LIMMIN
 10
0
 20
0
  9
$LIMMAX
 10
420
 20
297
  9
$ORTHOMODE
 70
    0
  9
$REGENMODE
 70
    1
  9
$FILLMODE
 70
    1
  9
$QTEXTMODE
 70
    0
  9
$MIRRTEXT
 70
    1
  9
$LTSCALE
 40
1
  9
$ATTMODE
 70
    1
  9
$TEXTSIZE
 40
2.5
  9
$TRACEWID
 40
1
  9
$TEXTSTYLE
  7
Standard
  9
$CLAYER
  8
0
  9
$CELTYPE
  6
ByLayer
  9
$CECOLOR
 62
  256
  9
$CELTSCALE
 40
1
  9
$DISPSILH
 70
    0
  9
$DIMSCALE
 40
1
  9
$DIMASZ
 40
2.5
  9
$DIMEXO
 40
0.625
  9
$DIMDLI
 40
3.75
  9
$DIMRND
 40
0
  9
$DIMDLE
 40
0
  9
$DIMEXE
 40
1.25
  9
$DIMTP
 40
0
  9
$DIMTM
 40
0
  9
$DIMTXT
 40
2.5
  9
$DIMCEN
 40
2.5
  9
$DIMTSZ
 40
0
  9
$DIMTOL
 70
    0
  9
$DIMLIM
 70
    0
  9
$DIMTIH
 70
    0
  9
$DIMTOH
 70
    0
  9
$DIMSE1
 70
    0
  9
$DIMSE2
 70
    0
  9
$DIMTAD
 70
    1
  9
$DIMZIN
 70
    8
  9
$DIMBLK
  1

  9
$DIMASO
 70
    1
  9
$DIMSHO
 70
    1
  9
$DIMPOST
  1

  9
$DIMAPOST
  1

  9
$DIMALT
 70
    0
  9
$DIMALTD
 70
    3
  9
$DIMALTF
 40
0.03937007874
  9
$DIMLFAC
 40
1
  9
$DIMTOFL
 70
    1
  9
$DIMTVP
 40
0
  9
$DIMTIX
 70
    0
  9
$DIMSOXD
 70
    0
  9
$DIMSAH
 70
    0
  9
$DIMBLK1
  1

  9
$DIMBLK2
  1

  9
$DIMSTYLE
  2
ISO-25
  9
$DIMCLRD
 70
    0
  9
$DIMCLRE
 70
    0
  9
$DIMCLRT
 70
    0
  9
$DIMTFAC
 40
1
  9
$DIMGAP
 40
0.625
  9
$DIMJUST
 70
    0
  9
$DIMSD1
 70
    0
  9
$DIMSD2
 70
    0
  9
$DIMTOLJ
 70
    0
  9
$DIMTZIN
 70
    8
  9
$DIMALTZ
 70
    0
  9
$DIMALTTZ
 70
    0
  9
$DIMUPT
 70
    0
  9
$DIMDEC
 70
    2
  9
$DIMTDEC
 70
    2
  9
$DIMALTU
 70
    2
  9
$DIMALTTD
 70
    3
  9
$DIMTXSTY
  7
Standard
  9
$DIMAUNIT
 70
    0
  9
$DIMADEC
 70
    0
  9
$DIMALTRND
 40
0
  9
$DIMAZIN
 70
    0
  9
$DIMDSEP
 70
   44
  9
$DIMATFIT
 70
    3
  9
$DIMFRAC
 70
    0
  9
$DIMLDRBLK
  1

  9
$DIMLUNIT
 70
    2
  9
$DIMLWD
 70
   -2
  9
$DIMLWE
 70
   -2
  9
$DIMTMOVE
 70
    0
  9
$DIMFXL
 40
1
  9
$DIMFXLON
 70
    0
  9
$DIMJOGANG
 40
0.785398163397
  9
$DIMTFILL
 70
    0
  9
$DIMTFILLCLR
 70
    0
  9
$DIMARCSYM
 70
    0
  9
$DIMLTYPE
  6

  9
$DIMLTEX1
  6

  9
$DIMLTEX2
  6

  9
$LUNITS
 70
    2
  9
$LUPREC
 70
    4
  9
$SKETCHINC
 40
1
  9
$FILLETRAD
 40
10
  9
$AUNITS
 70
    0
  9
$AUPREC
 70
    2
  9
$MENU
  1
.
  9
$ELEVATION
 40
0
  9
$PELEVATION
 40
0
  9
$THICKNESS
 40
0
  9
$LIMCHECK
 70
    0
  9
$CHAMFERA
 40
0
  9
$CHAMFERB
 40
0
  9
$CHAMFERC
 40
0
  9
$CHAMFERD
 40
0
  9
$SKPOLY
 70
    0
  9
$USRTIMER
 70
    1
  9
$ANGBASE
 50
0
  9
$ANGDIR
 70
    0
  9
$PDMODE
 70
    0
  9
$PDSIZE
 40
0
  9
$PLINEWID
 40
0
  9
$SPLFRAME
 70
    0
  9
$SPLINETYPE
 70
    6
  9
$SPLINESEGS
 70
    8
  9
$HANDSEED
  5
20000
  9
$SURFTAB1
 70
    6
  9
$SURFTAB2
 70
    6
  9
$SURFTYPE
 70
    6
  9
$SURFU
 70
    6
  9
$SURFV
 70
    6
  9
$UCSBASE
  2

  9
$UCSNAME
  2

  9
$UCSORG
 10
0
 20
0
 30
0
  9
$UCSXDIR
 10
1
 20
0
 30
0
  9
$UCSYDIR
 10
0
 20
1
 30
0
  9
$UCSORTHOREF
  2

  9
$UCSORTHOVIEW
 70
    0
  9
$UCSORGTOP
 10
0
 20
0
 30
0
  9
$UCSORGBOTTOM
 10
0
 20
0
 30
0
  9
$UCSORGLEFT
 10
0
 20
0
 30
0
  9
$UCSORGRIGHT
 10
0
 20
0
 30
0
  9
$UCSORGFRONT
 10
0
 20
0
 30
0
  9
$UCSORGBACK
 10
0
 20
0
 30
0
  9
$PUCSBASE
  2

  9
$PUCSNAME
  2

  9
$PUCSORG
 10
0
 20
0
 30
0
  9
$PUCSXDIR
 10
1
 20
0
 30
0
  9
$PUCSYDIR
 10
0
 20
1
 30
0
  9
$PUCSORTHOREF
  2

  9
$PUCSORTHOVIEW
 70
    0
  9
$PUCSORGTOP
 10
0
 20
0
 30
0
  9
$PUCSORGBOTTOM
 10
0
 20
0
 30
0
  9
$PUCSORGLEFT
 10
0
 20
0
 30
0
  9
$PUCSORGRIGHT
 10
0
 20
0
 30
0
  9
$PUCSORGFRONT
 10
0
 20
0
 30
0
  9
$PUCSORGBACK
 10
0
 20
0
 30
0
  9
$USERI1
 70
    0
  9
$USERI2
 70
    0
  9
$USERI3
 70
    0
  9
$USERI4
 70
    0
  9
$USERI5
 70
    0
  9
$USERR1
 40
0
  9
$USERR2
 40
0
  9
$USERR3
 40
0
  9
$USERR4
 40
0
  9
$USERR5
 40
0
  9
$WORLDVIEW
 70
    1
  9
$SHADEDGE
 70
    3
  9
$SHADEDIF
 70
   70
  9
$TILEMODE
 70
    1
  9
$MAXACTVP
 70
   64
  9
$PINSBASE
 10
0
 20
0
 30
0
  9
$PLIMCHECK
 70
    0
  9
$PEXTMIN
 10
1e+20
 20
1e+20
 30
1e+20
  9
$PEXTMAX
 10
-1e+20
 20
-1e+20
 30
-1e+20
  9
$GRIDMODE
 70
    0
  9
$SNAPSTYLE
 70
    0
  9
$PLIMMIN
 10
0
 20
0
  9
$PLIMMAX
 10
420
 20
297
  9
$UNITMODE
 70
    0
  9
$VISRETAIN
 70
    1
  9
$PLINEGEN
 70
    0
  9
$PSLTSCALE
 70
    1
  9
$TREEDEPTH
 70
 3020
  9
$CMLSTYLE
  2
Standard
  9
$CMLJUST
 70
    0
  9
$CMLSCALE
 40
20
  9
$PROXYGRAPHICS
 70
    1
  9
$MEASUREMENT
 70
    1
  9
$CELWEIGHT
370
   -1
  9
$ENDCAPS
280
    0
  9
$JOINSTYLE
280
    0
  9
$LWDISPLAY
290
    0
  9
$INSUNITS
 70
    6
  9
$HYPERLINKBASE
  1

  9
$STYLESHEET
  1

  9
$XEDIT
290
    1
  9
$CEPSNTYPE
380
    0
  9
$PSTYLEMODE
290
    1
  9
$EXTNAMES
290
    1
  9
$PSVPSCALE
 40
0
  9
$OLESTARTUP
290
    0
  9
$SORTENTS
280
  127
  9
$INDEXCTL
280
    0
  9
$HIDETEXT
280
    1
  9
$XCLIPFRAME
290
    0
  9
$HALOGAP
280
    0
  9
$OBSCOLOR
 70
  257
  9
$OBSLTYPE
280
    0
  9
$INTERSECTIONDISPLAY
280
    0
  9
$INTERSECTIONCOLOR
 70
  257
  9
$DIMASSOC
280
    2
  9
$PROJECTNAME
  1

  9
$CAMERADISPLAY
290
    0
  9
$LENSLENGTH
 40
50
  9
$CAMERAHEIGHT
 40
0
  9
$STEPSPERSEC
 40
24
  9
$STEPSIZE
 40
100
  9
$3DDWFPREC
 40
2
  9
$PSOLWIDTH
 40
0.005
  9
$PSOLHEIGHT
 40
0.08
  9
$LOFTANG1
 40
1.570796326795
  9
$LOFTANG2
 40
1.570796326795
  9
$LOFTMAG1
 40
0
  9
$LOFTMAG2
 40
0
  9
$LOFTPARAM
 70
    7
  9
$LOFTNORMALS
280
    1
  9
$LATITUDE
 40
37.795
  9
$LONGITUDE
 40
-122.394
  9
$NORTHDIRECTION
 40
0
  9
$TIMEZONE
 70
-8000
  9
$LIGHTGLYPHDISPLAY
280
    1
  9
$TILEMODELIGHTSYNCH
280
    1
  9
$SOLIDHIST
280
    0
  9
$SHOWHIST
280
    1
  9
$DWFFRAME
280
    2
  9
$DGNFRAME
280
    2
  9
$REALWORLDSCALE
290
    1
  9
$INTERFERECOLOR
 62
  256
  9
$CSHADOW
280
    0
  9
$SHADOWPLANELOCATION
 40
0
  0
ENDSEC
  0
SECTION
  2
CLASSES
  0
ENDSEC
  0
SECTION
  2
TABLES
  0
TABLE
  2
VPORT
  5
8
330
0
100
AcDbSymbolTable
 70
    1
  0
VPORT
  5
31
330
2
100
AcDbSymbolTableRecord
100
AcDbViewportTableRecord
  2
*ACTIVE
 70
    0
 10
0
 20
0
 11
1
 21
1
 12
760.8913402061855
 22
216.6160824742268
 13
0
 23
0
 14
10
 24
10
 15
10
 25
10
 16
0
 26
0
 36
1
 17
0
 27
0
 37
0
 40
731.8997938144329
 41
2.204783258594918
 42
50
 43
0
 44
0
 50
0
 51
0
 71
    0
 72
  100
 73
    1
 74
    3
 75
    0
 76
    0
 77
    0
 78
    0
281
    0
 65
    1
110
0
120
0
130
0
111
1
121
0
131
0
112
0
122
1
132
0
 79
    0
146
0
348
10020
 60
    7
 61
    5
292
1
282
    1
141
0
142
0
 63
  250
421
3358443
  0
ENDTAB
  0
TABLE
  2
LTYPE
  5
5
330
0
100
AcDbSymbolTable
 70
    4
  0
LTYPE
  5
14
330
5
100
AcDbSymbolTableRecord
100
AcDbLinetypeTableRecord
  2
ByBlock
 70
    0
  3

 72
   65
 73
    0
 40
0
  0
LTYPE
  5
15
330
5
100
AcDbSymbolTableRecord
100
AcDbLinetypeTableRecord
  2
ByLayer
 70
    0
  3

 72
   65
 73
    0
 40
0
  0
LTYPE
  5
16
330
5
100
AcDbSymbolTableRecord
100
AcDbLinetypeTableRecord
  2
Continuous
 70
    0
  3
Solid line
 72
   65
 73
    0
 40
0
  0
LTYPE
  5
32
330
5
100
AcDbSymbolTableRecord
100
AcDbLinetypeTableRecord
  2
DOT
 70
    0
  3
Dot . . . . . . . . . . . . . . . . . . . . . .
 72
   65
 73
    2
 40
6.35
 49
0
 74
    0
 49
-6.35
 74
    0
  0
LTYPE
  5
33
330
5
100
AcDbSymbolTableRecord
100
AcDbLinetypeTableRecord
  2
DOTTINY
 70
    0
  3
Dot (.15x) .....................................
 72
   65
 73
    2
 40
0.9525
 49
0
 74
    0
 49
-0.9525
 74
    0
  0
LTYPE
  5
34
330
5
100
AcDbSymbolTableRecord
100
AcDbLinetypeTableRecord
  2
DOT2
 70
    0
  3
Dot (.5x) .....................................
 72
   65
 73
    2
 40
3.175
 49
0
 74
    0
 49
-3.175
 74
    0
  0
LTYPE
  5
35
330
5
100
AcDbSymbolTableRecord
100
AcDbLinetypeTableRecord
  2
DOTX2
 70
    0
  3
Dot (2x) .  .  .  .  .  .  .  .  .  .  .  .  .
 72
   65
 73
    2
 40
12.7
 49
0
 74
    0
 49
-12.7
 74
    0
  0
LTYPE
  5
36
330
5
100
AcDbSymbolTableRecord
100
AcDbLinetypeTableRecord
  2
DASHED
 70
    0
  3
Dashed _ _ _ _ _ _ _ _ _ _ _ _ _ _ _ _ _
 72
   65
 73
    2
 40
19.05
 49
12.7
 74
    0
 49
-6.35
 74
    0
  0
LTYPE
  5
37
330
5
100
AcDbSymbolTableRecord
100
AcDbLinetypeTableRecord
  2
DASHEDTINY
 70
    0
  3
Dashed (.15x) _ _ _ _ _ _ _ _ _ _ _ _ _ _ _ _ _
 72
   65
 73
    2
 40
2.8575
 49
1.905
 74
    0
 49
-0.9525
 74
    0
  0
LTYPE
  5
38
330
5
100
AcDbSymbolTableRecord
100
AcDbLinetypeTableRecord
  2
DASHED2
 70
    0
  3
Dashed (.5x) _ _ _ _ _ _ _ _ _ _ _ _ _ _ _ _ _
 72
   65
 73
    2
 40
9.524999999999999
 49
6.35
 74
    0
 49
-3.175
 74
    0
  0
LTYPE
  5
39
330
5
100
AcDbSymbolTableRecord
100
AcDbLinetypeTableRecord
  2
DASHEDX2
 70
    0
  3
Dashed (2x) ____  ____  ____  ____  ____  ___
 72
   65
 73
    2
 40
38.09999999999999
 49
25.4
 74
    0
 49
-12.7
 74
    0
  0
LTYPE
  5
3A
330
5
100
AcDbSymbolTableRecord
100
AcDbLinetypeTableRecord
  2
DASHDOT
 70
    0
  3
Dash dot __ . __ . __ . __ . __ . __ . __ . __
 72
   65
 73
    4
 40
25.4
 49
12.7
 74
    0
 49
-6.35
 74
    0
 49
0
 74
    0
 49
-6.35
 74
    0
  0
LTYPE
  5
3B
330
5
100
AcDbSymbolTableRecord
100
AcDbLinetypeTableRecord
  2
DASHDOTTINY
 70
    0
  3
Dash dot (.15x) _._._._._._._._._._._._._._._.
 72
   65
 73
    4
 40
3.81
 49
1.905
 74
    0
 49
-0.9525
 74
    0
 49
0
 74
    0
 49
-0.9525
 74
    0
  0
LTYPE
  5
3C
330
5
100
AcDbSymbolTableRecord
100
AcDbLinetypeTableRecord
  2
DASHDOT2
 70
    0
  3
Dash dot (.5x) _._._._._._._._._._._._._._._.
 72
   65
 73
    4
 40
12.7
 49
6.35
 74
    0
 49
-3.175
 74
    0
 49
0
 74
    0
 49
-3.175
 74
    0
  0
LTYPE
  5
3D
330
5
100
AcDbSymbolTableRecord
100
AcDbLinetypeTableRecord
  2
DASHDOTX2
 70
    0
  3
Dash dot (2x) ____  .  ____  .  ____  .  ___
 72
   65
 73
    4
 40
50.8
 49
25.4
 74
    0
 49
-12.7
 74
    0
 49
0
 74
    0
 49
-12.7
 74
    0
  0
LTYPE
  5
3E
330
5
100
AcDbSymbolTableRecord
100
AcDbLinetypeTableRecord
  2
DIVIDE
 70
    0
  3
Divide ____ . . ____ . . ____ . . ____ . . ____
 72
   65
 73
    6
 40
31.75
 49
12.7
 74
    0
 49
-6.35
 74
    0
 49
0
 74
    0
 49
-6.35
 74
    0
 49
0
 74
    0
 49
-6.35
 74
    0
  0
LTYPE
  5
3F
330
5
100
AcDbSymbolTableRecord
100
AcDbLinetypeTableRecord
  2
DIVIDETINY
 70
    0
  3
Divide (.15x) __..__..__..__..__..__..__..__.._
 72
   65
 73
    6
 40
4.7625
 49
1.905
 74
    0
 49
-0.9525
 74
    0
 49
0
 74
    0
 49
-0.9525
 74
    0
 49
0
 74
    0
 49
-0.9525
 74
    0
  0
LTYPE
  5
40
330
5
100
AcDbSymbolTableRecord
100
AcDbLinetypeTableRecord
  2
DIVIDE2
 70
    0
  3
Divide (.5x) __..__..__..__..__..__..__..__.._
 72
   65
 73
    6
 40
15.875
 49
6.35
 74
    0
 49
-3.175
 74
    0
 49
0
 74
    0
 49
-3.175
 74
    0
 49
0
 74
    0
 49
-3.175
 74
    0
  0
LTYPE
  5
41
330
5
100
AcDbSymbolTableRecord
100
AcDbLinetypeTableRecord
  2
DIVIDEX2
 70
    0
  3
Divide (2x) ________  .  .  ________  .  .  _
 72
   65
 73
    6
 40
63.5
 49
25.4
 74
    0
 49
-12.7
 74
    0
 49
0
 74
    0
 49
-12.7
 74
    0
 49
0
 74
    0
 49
-12.7
 74
    0
  0
LTYPE
  5
42
330
5
100
AcDbSymbolTableRecord
100
AcDbLinetypeTableRecord
  2
BORDER
 70
    0
  3
Border __ __ . __ __ . __ __ . __ __ . __ __ .
 72
   65
 73
    6
 40
44.45
 49
12.7
 74
    0
 49
-6.35
 74
    0
 49
12.7
 74
    0
 49
-6.35
 74
    0
 49
0
 74
    0
 49
-6.35
 74
    0
  0
LTYPE
  5
43
330
5
100
AcDbSymbolTableRecord
100
AcDbLinetypeTableRecord
  2
BORDERTINY
 70
    0
  3
Border (.15x) __.__.__.__.__.__.__.__.__.__.__.
 72
   65
 73
    6
 40
6.6675
 49
1.905
 74
    0
 49
-0.9525
 74
    0
 49
1.905
 74
    0
 49
-0.9525
 74
    0
 49
0
 74
    0
 49
-0.9525
 74
    0
  0
LTYPE
  5
44
330
5
100
AcDbSymbolTableRecord
100
AcDbLinetypeTableRecord
  2
BORDER2
 70
    0
  3
Border (.5x) __.__.__.__.__.__.__.__.__.__.__.
 72
   65
 73
    6
 40
22.225
 49
6.35
 74
    0
 49
-3.175
 74
    0
 49
6.35
 74
    0
 49
-3.175
 74
    0
 49
0
 74
    0
 49
-3.175
 74
    0
  0
LTYPE
  5
45
330
5
100
AcDbSymbolTableRecord
100
AcDbLinetypeTableRecord
  2
BORDERX2
 70
    0
  3
Border (2x) ____  ____  .  ____  ____  .  ___
 72
   65
 73
    6
 40
88.89999999999999
 49
25.4
 74
    0
 49
-12.7
 74
    0
 49
25.4
 74
    0
 49
-12.7
 74
    0
 49
0
 74
    0
 49
-12.7
 74
    0
  0
LTYPE
  5
46
330
5
100
AcDbSymbolTableRecord
100
AcDbLinetypeTableRecord
  2
CENTER
 70
    0
  3
Center ____ _ ____ _ ____ _ ____ _ ____ _ ____
 72
   65
 73
    4
 40
50.8
 49
31.75
 74
    0
 49
-6.35
 74
    0
 49
6.35
 74
    0
 49
-6.35
 74
    0
  0
LTYPE
  5
47
330
5
100
AcDbSymbolTableRecord
100
AcDbLinetypeTableRecord
  2
CENTERTINY
 70
    0
  3
Center (.15x) ___ _ ___ _ ___ _ ___ _ ___ _ ___
 72
   65
 73
    4
 40
7.619999999999999
 49
4.7625
 74
    0
 49
-0.9525
 74
    0
 49
0.9525
 74
    0
 49
-0.9525
 74
    0
  0
LTYPE
  5
48
330
5
100
AcDbSymbolTableRecord
100
AcDbLinetypeTableRecord
  2
CENTER2
 70
    0
  3
Center (.5x) ___ _ ___ _ ___ _ ___ _ ___ _ ___
 72
   65
 73
    4
 40
28.575
 49
19.05
 74
    0
 49
-3.175
 74
    0
 49
3.175
 74
    0
 49
-3.175
 74
    0
  0
LTYPE
  5
49
330
5
100
AcDbSymbolTableRecord
100
AcDbLinetypeTableRecord
  2
CENTERX2
 70
    0
  3
Center (2x) ________  __  ________  __  _____
 72
   65
 73
    4
 40
101.6
 49
63.5
 74
    0
 49
-12.7
 74
    0
 49
12.7
 74
    0
 49
-12.7
 74
    0
  0
ENDTAB
  0
TABLE
  2
LAYER
  5
2
330
0
100
AcDbSymbolTable
 70
    1
  0
LAYER
  5
10
330
2
100
AcDbSymbolTableRecord
100
AcDbLayerTableRecord
  2
0
 70
    0
 62
    7
  6
CONTINUOUS
370
   -3
390
F
  0
LAYER
  5
4A
330
2
100
AcDbSymbolTableRecord
100
AcDbLayerTableRecord
  2
Defpoints
 70
    0
 62
    7
  6
CONTINUOUS
290
0
370
   -3
390
F
  0
ENDTAB
  0
TABLE
  2
STYLE
  5
3
330
0
100
AcDbSymbolTable
 70
    3
  0
STYLE
  5
4B
330
2
100
AcDbSymbolTableRecord
100
AcDbTextStyleTableRecord
  2
Standard
 70
    0
 40
0
 41
1
 50
0
 71
    0
 42
1
  3
txt
  4

  0
ENDTAB
  0
TABLE
  2
VIEW
  5
6
330
0
100
AcDbSymbolTable
 70
    0
  0
ENDTAB
  0
TABLE
  2
UCS
  5
7
330
0
100
AcDbSymbolTable
 70
    0
  0
ENDTAB
  0
TABLE
  2
APPID
  5
9
330
0
100
AcDbSymbolTable
 70
    1
  0
APPID
  5
12
330
9
100
AcDbSymbolTableRecord
100
AcDbRegAppTableRecord
  2
ACAD
 70
    0
  0
APPID
  5
4C
330
9
100
AcDbSymbolTableRecord
100
AcDbRegAppTableRecord
  2
LibreCad
 70
    0
  0
ENDTAB
  0
TABLE
  2
DIMSTYLE
  5
A
330
0
100
AcDbSymbolTable
 70
    1
100
AcDbDimStyleTable
 71
    1
  0
DIMSTYLE
105
4D
330
A
100
AcDbSymbolTableRecord
100
AcDbDimStyleTableRecord
  2
Standard
 70
    0
 40
1
 41
2.5
 42
0.625
 43
0.38
 44
1.25
 45
0
 46
0
 47
0
 48
0
 49
1
140
2.5
141
0.09
142
0
143
25.4
144
1
145
0
146
1
147
0.625
148
0
 71
    0
 72
    0
 73
    0
 74
    1
 75
    0
 76
    0
 77
    0
 78
    8
 79
    0
170
    0
171
    2
172
    0
173
    0
174
    0
175
    0
176
    0
177
    0
178
    0
179
    0
271
    2
272
    4
273
    2
274
    2
275
    0
276
    0
277
    2
278
   44
279
    0
280
    0
281
    0
282
    0
283
    1
284
    0
285
    0
286
    0
288
    0
289
    3
340
Standard
341

371
   -2
372
   -2
  0
ENDTAB
  0
TABLE
  2
BLOCK_RECORD
  5
1
330
0
100
AcDbSymbolTable
 70
    2
  0
BLOCK_RECORD
  5
1F
330
1
100
AcDbSymbolTableRecord
100
AcDbBlockTableRecord
  2
*Model_Space
 70
    0
280
    1
281
    0
  0
BLOCK_RECORD
  5
1E
330
1
100
AcDbSymbolTableRecord
100
AcDbBlockTableRecord
  2
*Paper_Space
 70
    0
280
    1
281
    0
  0
ENDTAB
  0
ENDSEC
  0
SECTION
  2
BLOCKS
  0
BLOCK
  5
20
330
1F
100
AcDbEntity
  8
0
100
AcDbBlockBegin
  2
*Model_Space
 70
    0
 10
0
 20
0
 30
0
  3
*Model_Space
  1

  0
ENDBLK
  5
21
330
1F
100
AcDbEntity
  8
0
100
AcDbBlockEnd
  0
BLOCK
  5
1C
330
1B
100
AcDbEntity
  8
0
100
AcDbBlockBegin
  2
*Paper_Space
 70
    0
 10
0
 20
0
 30
0
  3
*Paper_Space
  1

  0
ENDBLK
  5
1D
330
1F
100
AcDbEntity
  8
0
100
AcDbBlockEnd
  0
ENDSEC
  0
SECTION
  2
ENTITIES
  0
SPLINE
  5
4E
100
AcDbEntity
  8
0
  6
ByLayer
 62
  256
370
   -1
100
AcDbSpline
210
0
220
0
230
0
 70
    8
 71
    3
 72
  104
 73
  100
 74
    0
 42
1e-07
 43
1e-07
 40
0
 40
0
 40
0
 40
0
 40
0.01030927835051546
 40
0.02061855670103093
 40
0.03092783505154639
 40
0.04123711340206185
 40
0.05154639175257732
 40
0.06185567010309279
 40
0.07216494845360824
 40
0.08247422680412371
 40
0.09278350515463918
 40
0.1030927835051546
 40
0.1134020618556701
 40
0.1237113402061856
 40
0.134020618556701
 40
0.1443298969072165
 40
0.154639175257732
 40
0.1649484536082474
 40
0.1752577319587629
 40
0.1855670103092784
 40
0.1958762886597938
 40
0.2061855670103093
 40
0.2164948453608248
 40
0.2268041237113402
 40
0.2371134020618557
 40
0.2474226804123711
 40
0.2577319587628866
 40
0.2680412371134021
 40
0.2783505154639175
 40
0.288659793814433
 40
0.2989690721649484
 40
0.3092783505154639
 40
0.3195876288659794
 40
0.3298969072164948
 40
0.3402061855670103
 40
0.3505154639175257
 40
0.3608247422680412
 40
0.3711340206185567
 40
0.3814432989690721
 40
0.3917525773195876
 40
0.4020618556701031
 40
0.4123711340206185
 40
0.422680412371134
 40
0.4329896907216495
 40
0.4432989690721649
 40
0.4536082474226804
 40
0.4639175257731959
 40
0.4742268041237113
 40
0.4845360824742268
 40
0.4948453608247423
 40
0.5051546391752577
 40
0.5154639175257731
 40
0.5257731958762887
 40
0.5360824742268041
 40
0.5463917525773195
 40
0.5567010309278351
 40
0.5670103092783505
 40
0.5773195876288659
 40
0.5876288659793815
 40
0.5979381443298969
 40
0.6082474226804123
 40
0.6185567010309279
 40
0.6288659793814433
 40
0.6391752577319587
 40
0.6494845360824743
 40
0.6597938144329897
 40
0.6701030927835051
 40
0.6804123711340206
 40
0.6907216494845361
 40
0.7010309278350515
 40
0.711340206185567
 40
0.7216494845360825
 40
0.7319587628865979
 40
0.7422680412371134
 40
0.7525773195876289
 40
0.7628865979381443
 40
0.7731958762886598
 40
0.7835051546391752
 40
0.7938144329896907
 40
0.8041237113402062
 40
0.8144329896907216
 40
0.8247422680412371
 40
0.8350515463917526
 40
0.845360824742268
 40
0.8556701030927835
 40
0.865979381443299
 40
0.8762886597938144
 40
0.8865979381443299
 40
0.8969072164948454
 40
0.9072164948453608
 40
0.9175257731958762
 40
0.9278350515463918
 40
0.9381443298969072
 40
0.9484536082474226
 40
0.9587628865979382
 40
0.9690721649484536
 40
0.979381443298969
 40
0.9896907216494846
 40
1
 40
1
 40
1
 40
1
 10
0
 20
0
 30
0
 10
14.14141414141414
 20
34.66249035025592
 30
0
 10
28.28282828282828
 20
45.29258781189017
 30
0
 10
42.42424242424242
 20
52.73666926760897
 30
0
 10
56.56565656565657
 20
58.56329057848619
 30
0
 10
70.70707070707071
 20
63.35911184665979
 30
0
 10
84.84848484848484
 20
67.41819716657344
 30
0
 10
98.98989898989899
 20
70.91211698798691
 30
0
 10
113.1313131313131
 20
73.9508847630278
 30
0
 10
127.2727272727273
 20
76.6097260360071
 30
0
 10
141.4141414141414
 20
78.94250538329759
 30
0
 10
155.5555555555556
 20
80.98912537407915
 30
0
 10
169.6969696969697
 20
82.77990093198261
 30
0
 10
183.8383838383838
 20
84.33829006939619
 30
0
 10
197.979797979798
 20
85.68267316812941
 30
0
 10
212.1212121212121
 20
86.82755216982652
 30
0
 10
226.2626262626263
 20
87.78438015794417
 30
0
 10
240.4040404040404
 20
88.56214607365995
 30
0
 10
254.5454545454546
 20
89.16779119469501
 30
0
 10
268.6868686868687
 20
89.6065057493267
 30
0
 10
282.8282828282829
 20
89.88193671933155
 30
0
 10
296.969696969697
 20
89.99632679298151
 30
0
 10
311.1111111111111
 20
90
 30
0
 10
325.2525252525253
 20
90
 30
0
 10
339.3939393939394
 20
90
 30
0
 10
353.5353535353535
 20
90
 30
0
 10
367.6767676767677
 20
90
 30
0
 10
381.8181818181818
 20
90
 30
0
 10
395.959595959596
 20
90
 30
0
 10
410.1010101010101
 20
90
 30
0
 10
424.2424242424242
 20
90
 30
0
 10
438.3838383838384
 20
90
 30
0
 10
452.5252525252525
 20
90
 30
0
 10
466.6666666666667
 20
90
 30
0
 10
480.8080808080808
 20
90
 30
0
 10
494.949494949495
 20
90
 30
0
 10
509.0909090909091
 20
90
 30
0
 10
523.2323232323232
 20
90
 30
0
 10
537.3737373737374
 20
90
 30
0
 10
551.5151515151515
 20
90
 30
0
 10
565.6565656565657
 20
90
 30
0
 10
579.7979797979798
 20
90
 30
0
 10
593.939393939394
 20
90
 30
0
 10
608.0808080808081
 20
90
 30
0
 10
622.2222222222223
 20
90
 30
0
 10
636.3636363636364
 20
90
 30
0
 10
650.5050505050506
 20
90
 30
0
 10
664.6464646464647
 20
90
 30
0
 10
678.7878787878788
 20
90
 30
0
 10
692.929292929293
 20
90
 30
0
 10
707.070707070707
 20
90
 30
0
 10
721.2121212121212
 20
90
 30
0
 10
735.3535353535353
 20
90
 30
0
 10
749.4949494949495
 20
90
 30
0
 10
763.6363636363636
 20
90
 30
0
 10
777.7777777777778
 20
90
 30
0
 10
791.9191919191919
 20
90
 30
0
 10
806.0606060606061
 20
90
 30
0
 10
820.2020202020202
 20
90
 30
0
 10
834.3434343434344
 20
90
 30
0
 10
848.4848484848485
 20
90
 30
0
 10
862.6262626262627
 20
90
 30
0
 10
876.7676767676768
 20
90
 30
0
 10
890.909090909091
 20
90
 30
0
 10
905.0505050505051
 20
90
 30
0
 10
919.1919191919192
 20
90
 30
0
 10
933.3333333333334
 20
90
 30
0
 10
947.4747474747475
 20
90
 30
0
 10
961.6161616161617
 20
90
 30
0
 10
975.7575757575758
 20
90
 30
0
 10
989.89898989899
 20
90
 30
0
 10
1004.040404040404
 20
90
 30
0
 10
1018.181818181818
 20
90
 30
0
 10
1032.323232323232
 20
90
 30
0
 10
1046.464646464646
 20
90
 30
0
 10
1060.606060606061
 20
90
 30
0
 10
1074.747474747475
 20
90
 30
0
 10
1088.888888888889
 20
90
 30
0
 10
1103.030303030303
 20
89.99013097809456
 30
0
 10
1117.171717171717
 20
89.68414414048114
 30
0
 10
1131.313131313131
 20
88.95318682307513
 30
0
 10
1145.454545454545
 20
87.80152924645409
 30
0
 10
1159.59595959596
 20
86.23344163119573
 30
0
 10
1173.737373737374
 20
84.2531941978776
 30
0
 10
1187.878787878788
 20
81.86505716707732
 30
0
 10
1202.020202020202
 20
79.07330075937257
 30
0
 10
1216.161616161616
 20
75.88219519534093
 30
0
 10
1230.30303030303
 20
72.29601069556003
 30
0
 10
1244.444444444445
 20
68.3190174806074
 30
0
 10
1258.585858585859
 20
63.95548577106083
 30
0
 10
1272.727272727273
 20
59.20968578749785
 30
0
 10
1286.868686868687
 20
54.08588775049608
 30
0
 10
1301.010101010101
 20
48.58836188063307
 30
0
 10
1315.151515151515
 20
42.72137839848659
 30
0
 10
1329.292929292929
 20
36.4892075246342
 30
0
 10
1343.434343434343
 20
29.8961194796535
 30
0
 10
1357.575757575758
 20
22.94638448412213
 30
0
 10
1371.717171717172
 20
15.64427275861759
 30
0
 10
1385.858585858586
 20
7.994054523717693
 30
0
 10
1400
 20
-1.953992523340276e-14
 30
0
  0
SPLINE
  5
4F
100
AcDbEntity
  8
0
  6
ByLayer
 62
  256
370
   -1
100
AcDbSpline
210
0
220
0
230
0
 70
    8
 71
    3
 72
  104
 73
  100
 74
    0
 42
1e-07
 43
1e-07
 40
0
 40
0
 40
0
 40
0
 40
0.01030927835051546
 40
0.02061855670103093
 40
0.03092783505154639
 40
0.04123711340206185
 40
0.05154639175257732
 40
0.06185567010309279
 40
0.07216494845360824
 40
0.08247422680412371
 40
0.09278350515463918
 40
0.1030927835051546
 40
0.1134020618556701
 40
0.1237113402061856
 40
0.134020618556701
 40
0.1443298969072165
 40
0.154639175257732
 40
0.1649484536082474
 40
0.1752577319587629
 40
0.1855670103092784
 40
0.1958762886597938
 40
0.2061855670103093
 40
0.2164948453608248
 40
0.2268041237113402
 40
0.2371134020618557
 40
0.2474226804123711
 40
0.2577319587628866
 40
0.2680412371134021
 40
0.2783505154639175
 40
0.288659793814433
 40
0.2989690721649484
 40
0.3092783505154639
 40
0.3195876288659794
 40
0.3298969072164948
 40
0.3402061855670103
 40
0.3505154639175257
 40
0.3608247422680412
 40
0.3711340206185567
 40
0.3814432989690721
 40
0.3917525773195876
 40
0.4020618556701031
 40
0.4123711340206185
 40
0.422680412371134
 40
0.4329896907216495
 40
0.4432989690721649
 40
0.4536082474226804
 40
0.4639175257731959
 40
0.4742268041237113
 40
0.4845360824742268
 40
0.4948453608247423
 40
0.5051546391752577
 40
0.5154639175257731
 40
0.5257731958762887
 40
0.5360824742268041
 40
0.5463917525773195
 40
0.5567010309278351
 40
0.5670103092783505
 40
0.5773195876288659
 40
0.5876288659793815
 40
0.5979381443298969
 40
0.6082474226804123
 40
0.6185567010309279
 40
0.6288659793814433
 40
0.6391752577319587
 40
0.6494845360824743
 40
0.6597938144329897
 40
0.6701030927835051
 40
0.6804123711340206
 40
0.6907216494845361
 40
0.7010309278350515
 40
0.711340206185567
 40
0.7216494845360825
 40
0.7319587628865979
 40
0.7422680412371134
 40
0.7525773195876289
 40
0.7628865979381443
 40
0.7731958762886598
 40
0.7835051546391752
 40
0.7938144329896907
 40
0.8041237113402062
 40
0.8144329896907216
 40
0.8247422680412371
 40
0.8350515463917526
 40
0.845360824742268
 40
0.8556701030927835
 40
0.865979381443299
 40
0.8762886597938144
 40
0.8865979381443299
 40
0.8969072164948454
 40
0.9072164948453608
 40
0.9175257731958762
 40
0.9278350515463918
 40
0.9381443298969072
 40
0.9484536082474226
 40
0.9587628865979382
 40
0.9690721649484536
 40
0.979381443298969
 40
0.9896907216494846
 40
1
 40
1
 40
1
 40
1
 10
0
 20
0
 30
0
 10
14.14141414141414
 20
-34.66249035025592
 30
0
 10
28.28282828282828
 20
-45.29258781189017
 30
0
 10
42.42424242424244
 20
-52.73666926760897
 30
0
 10
56.56565656565657
 20
-58.56329057848619
 30
0
 10
70.70707070707068
 20
-63.35911184665979
 30
0
 10
84.84848484848487
 20
-67.41819716657344
 30
0
 10
98.98989898989899
 20
-70.91211698798691
 30
0
 10
113.1313131313131
 20
-73.9508847630278
 30
0
 10
127.2727272727273
 20
-76.6097260360071
 30
0
 10
141.4141414141414
 20
-78.94250538329759
 30
0
 10
155.5555555555556
 20
-80.98912537407915
 30
0
 10
169.6969696969697
 20
-82.77990093198261
 30
0
 10
183.8383838383838
 20
-84.33829006939619
 30
0
 10
197.979797979798
 20
-85.68267316812941
 30
0
 10
212.1212121212121
 20
-86.82755216982652
 30
0
 10
226.2626262626263
 20
-87.78438015794417
 30
0
 10
240.4040404040404
 20
-88.56214607365995
 30
0
 10
254.5454545454546
 20
-89.16779119469501
 30
0
 10
268.6868686868687
 20
-89.6065057493267
 30
0
 10
282.8282828282827
 20
-89.88193671933155
 30
0
 10
296.969696969697
 20
-89.99632679298151
 30
0
 10
311.1111111111113
 20
-90
 30
0
 10
325.2525252525253
 20
-90
 30
0
 10
339.3939393939395
 20
-90
 30
0
 10
353.5353535353535
 20
-90
 30
0
 10
367.6767676767677
 20
-90
 30
0
 10
381.8181818181818
 20
-90
 30
0
 10
395.959595959596
 20
-90
 30
0
 10
410.10101010101
 20
-90
 30
0
 10
424.2424242424242
 20
-90
 30
0
 10
438.3838383838384
 20
-90
 30
0
 10
452.5252525252525
 20
-90
 30
0
 10
466.6666666666667
 20
-90
 30
0
 10
480.8080808080808
 20
-90
 30
0
 10
494.949494949495
 20
-90
 30
0
 10
509.0909090909092
 20
-90
 30
0
 10
523.2323232323232
 20
-90
 30
0
 10
537.3737373737374
 20
-90
 30
0
 10
551.5151515151515
 20
-90
 30
0
 10
565.6565656565655
 20
-90
 30
0
 10
579.7979797979798
 20
-90
 30
0
 10
593.939393939394
 20
-90
 30
0
 10
608.0808080808081
 20
-90
 30
0
 10
622.2222222222225
 20
-90
 30
0
 10
636.3636363636364
 20
-90
 30
0
 10
650.5050505050506
 20
-90
 30
0
 10
664.6464646464647
 20
-90
 30
0
 10
678.787878787879
 20
-90
 30
0
 10
692.929292929293
 20
-90
 30
0
 10
707.070707070707
 20
-90
 30
0
 10
721.212121212121
 20
-90
 30
0
 10
735.3535353535353
 20
-90
 30
0
 10
749.4949494949495
 20
-90
 30
0
 10
763.6363636363636
 20
-90
 30
0
 10
777.7777777777781
 20
-90
 30
0
 10
791.9191919191919
 20
-90
 30
0
 10
806.0606060606061
 20
-90
 30
0
 10
820.20202020202
 20
-90
 30
0
 10
834.3434343434346
 20
-90
 30
0
 10
848.4848484848485
 20
-90
 30
0
 10
862.6262626262629
 20
-90
 30
0
 10
876.7676767676768
 20
-90
 30
0
 10
890.909090909091
 20
-90
 30
0
 10
905.0505050505051
 20
-90
 30
0
 10
919.1919191919192
 20
-90
 30
0
 10
933.3333333333334
 20
-90
 30
0
 10
947.4747474747475
 20
-90
 30
0
 10
961.6161616161617
 20
-90
 30
0
 10
975.7575757575755
 20
-90
 30
0
 10
989.89898989899
 20
-90
 30
0
 10
1004.040404040404
 20
-90
 30
0
 10
1018.181818181818
 20
-90
 30
0
 10
1032.323232323232
 20
-90
 30
0
 10
1046.464646464646
 20
-90
 30
0
 10
1060.606060606061
 20
-90
 30
0
 10
1074.747474747475
 20
-90
 30
0
 10
1088.888888888889
 20
-90
 30
0
 10
1103.030303030303
 20
-89.99013097809456
 30
0
 10
1117.171717171717
 20
-89.68414414048114
 30
0
 10
1131.313131313131
 20
-88.95318682307513
 30
0
 10
1145.454545454546
 20
-87.80152924645409
 30
0
 10
1159.59595959596
 20
-86.23344163119573
 30
0
 10
1173.737373737374
 20
-84.2531941978776
 30
0
 10
1187.878787878788
 20
-81.86505716707732
 30
0
 10
1202.020202020202
 20
-79.07330075937257
 30
0
 10
1216.161616161616
 20
-75.88219519534093
 30
0
 10
1230.30303030303
 20
-72.29601069556003
 30
0
 10
1244.444444444445
 20
-68.3190174806074
 30
0
 10
1258.585858585859
 20
-63.95548577106083
 30
0
 10
1272.727272727273
 20
-59.20968578749785
 30
0
 10
1286.868686868687
 20
-54.08588775049608
 30
0
 10
1301.010101010101
 20
-48.58836188063307
 30
0
 10
1315.151515151515
 20
-42.72137839848659
 30
0
 10
1329.292929292929
 20
-36.4892075246342
 30
0
 10
1343.434343434343
 20
-29.8961194796535
 30
0
 10
1357.575757575758
 20
-22.94638448412213
 30
0
 10
1371.717171717172
 20
-15.64427275861759
 30
0
 10
1385.858585858586
 20
-7.994054523717693
 30
0
 10
1400
 20
1.953992523340276e-14
 30
0
  0
ENDSEC
  0
SECTION
  2
OBJECTS
  0
DICTIONARY
  5
C
330
0
100
AcDbDictionary
281
    1
  3
ACAD_GROUP
350
D
  0
DICTIONARY
  5
D
330
C
100
AcDbDictionary
281
    1
  0
ENDSEC
  0
EOF
